<svg width="290" height="86" viewBox="0 0 290 86" fill="none" xmlns="http://www.w3.org/2000/svg">
<path d="M189.253 0.504447L192.908 9.9845H192.934L196.589 0.504447H201.939V13.9942H197.913V5.39054L197.993 4.69997H197.913L194.259 13.9942H191.584L187.929 4.69997H187.849L187.929 5.39054V13.9942H183.903V0.504447H189.253Z" fill="#040606"/>
<path d="M210.308 11.79C211.288 11.79 213.248 11.1262 213.248 8.41784V7.56796C212.056 8.12541 212.136 7.9929 210.599 8.28503C209.752 8.41784 208.242 8.70997 208.242 10.2233C208.242 11.4979 209.54 11.79 210.308 11.79ZM209.116 6.37294C212.083 5.9483 213.142 6.16062 213.221 4.85929V4.48765C213.142 2.70837 211.5 2.70837 211.05 2.70837C210.308 2.70837 208.586 2.86769 208.586 4.85929H204.746C204.958 0.185817 209.593 0 211.076 0C217.141 0 217.247 3.47845 217.247 5.0451L217.168 11.2057C217.141 12.6929 217.194 13.5693 217.962 13.7551V13.9942H213.725L213.381 12.6664H213.301C212.242 14.0207 210.467 14.4987 208.799 14.4987C204.508 14.4987 204.111 11.737 204.111 10.595C204.111 7.51495 206.68 6.79788 209.116 6.37294Z" fill="#040606"/>
<path d="M223.789 13.9942H219.763V0.504447H230.013V3.21312H223.789V13.9942Z" fill="#040606"/>
<path d="M237.031 11.79C238.011 11.79 239.971 11.1262 239.971 8.41784V7.56796C238.779 8.12541 238.859 7.9929 237.322 8.28503C236.475 8.41784 234.965 8.70997 234.965 10.2233C234.965 11.4979 236.263 11.79 237.031 11.79ZM235.839 6.37294C238.806 5.9483 239.865 6.16062 239.944 4.85929V4.48765C239.865 2.70837 238.223 2.70837 237.773 2.70837C237.031 2.70837 235.31 2.86769 235.31 4.85929H231.469C231.681 0.185817 236.316 0 237.799 0C243.864 0 243.97 3.47845 243.97 5.0451L243.891 11.2057C243.864 12.6929 243.917 13.5693 244.685 13.7551V13.9942H240.448L240.103 12.6664H240.024C238.965 14.0207 237.19 14.4987 235.521 14.4987C231.231 14.4987 230.833 11.737 230.833 10.595C230.833 7.51495 233.403 6.79788 235.839 6.37294Z" fill="#040606"/>
<path d="M249.267 9.47975C249.346 10.4357 249.797 11.79 252.074 11.79C253.372 11.79 254.855 11.4183 254.855 10.064C254.855 9.24093 254.484 8.31153 252.445 8.31153H250.883V5.78898H252.551C253.69 5.78898 254.591 5.39054 254.591 4.35484C254.591 3.08031 253.293 2.70837 251.995 2.70837C251.28 2.70837 249.665 2.89449 249.585 4.83279H245.877C245.797 0.424943 250.062 0 252.313 0C254.538 0 258.722 0.212324 258.722 3.90339C258.722 5.49655 257.848 6.39944 256.127 6.85089V6.93069C258.352 7.35564 258.987 8.68317 258.987 10.2498C258.987 13.4895 256.233 14.4987 252.233 14.4987C248.499 14.4987 245.585 13.2241 245.453 9.47975H249.267Z" fill="#040606"/>
<path d="M260.761 13.9942V0.504447H264.787V9.26743L270.296 0.504447H274.56V13.9942H270.534V5.23122L265.052 13.9942H260.761Z" fill="#040606"/>
<path d="M281.128 0.504447V5.57636H285.975V0.504447H290V13.9942H285.975V8.28503H281.128V13.9942H277.102V0.504447H281.128Z" fill="#040606"/>
<path d="M24.5617 73.5061C24.9867 73.56 25.4638 73.6141 25.8878 73.6141C29.3343 73.6141 30.4482 71.9656 30.7119 63.512L30.7787 51.9763H54.4535V78.9824H46.3934V57.4652H38.7978L38.6918 63.4593C38.4274 77.7593 34.1718 79.4073 27.7567 79.4073C26.7496 79.4073 25.6231 79.3013 24.5617 79.0887V73.5061Z" fill="#040606"/>
<path d="M78.3023 62.7955C78.146 57.0007 74.7096 56.4559 72.7757 56.4559C68.0725 56.4559 66.4653 60.0303 66.3094 62.7955H78.3023ZM86.052 71.0344C83.961 78.689 77.1136 79.9915 72.2538 79.9915C68.7517 79.9915 57.9853 79.2486 57.9853 65.4268C57.9853 56.123 64.2045 50.966 72.8806 50.966C85.8945 50.966 86.3647 62.6621 86.5741 65.9569L86.6267 67.6179H66.2429C66.2429 70.2226 67.4975 74.5039 72.6189 74.5039C75.0957 74.5039 77.323 73.4269 78.002 71.0344H86.052Z" fill="#040606"/>
<path d="M98.2126 78.9824H90.1522V51.9763H98.2126V62.1306H107.782V51.9763H115.841V78.9824H107.782V67.6195H98.2126V78.9824Z" fill="#040606"/>
<path d="M139.577 51.9763H148.113V78.9824H140.127V61.4391L129.521 78.9824H120.931V51.9763H128.917V69.5192L139.577 51.9763Z" fill="#040606"/>
<path d="M161.242 73.56H166.278C170.308 73.56 170.785 71.9656 170.785 70.7953C170.785 68.9356 169.99 67.6051 166.173 67.6051H161.242V73.56ZM161.242 62.5558H165.43C166.755 62.5558 169.831 62.4492 169.831 60.0568C169.831 57.8249 167.868 57.3985 165.589 57.3985H161.242V62.5558ZM169.248 51.9763C171.739 51.9763 178.103 51.9763 178.103 58.5154C178.103 62.1306 175.557 64.4161 172.641 64.8416V65.0003C177.094 66.0105 179.057 67.8177 179.057 72.0719C179.057 77.6007 175.027 78.9824 169.194 78.9824H153.182V51.9763H169.248Z" fill="#040606"/>
<path d="M201.812 62.7955C201.654 57.0007 198.219 56.4559 196.285 56.4559C191.582 56.4559 189.975 60.0303 189.818 62.7955H201.812ZM209.56 71.0344C207.47 78.689 200.623 79.9915 195.763 79.9915C192.261 79.9915 181.495 79.2486 181.495 65.4268C181.495 56.123 187.714 50.966 196.39 50.966C209.404 50.966 209.873 62.6621 210.083 65.9569L210.135 67.6179H189.752C189.752 70.2226 191.007 74.5039 196.129 74.5039C198.604 74.5039 200.832 73.4269 201.511 71.0344H209.56Z" fill="#040606"/>
<path d="M231.288 73.5599V51.9763H239.347V73.5599H243.749L243.271 86H236.431V78.9823H213.66V51.9763H221.72V73.5599H231.288Z" fill="#040606"/>
<path d="M183.904 29.6367V35.1258H207.578V29.6367H183.904Z" fill="#040606"/>
<path d="M8.05884 46.4884H0V19.4824H8.05884V29.6367H17.6294V19.4824H25.6888V46.4884H17.6294V35.1258H8.05884V46.4884Z" fill="#040606"/>
<path d="M49.4232 19.4824H57.9606V46.4884H49.9751V28.9452L39.3678 46.4884H30.7787V19.4824H38.7643V37.0259L49.4232 19.4824Z" fill="#040606"/>
<path d="M80.2661 19.4824H89.5585L77.9473 32.5335L89.5585 46.4884H80.1871L71.2686 34.6862H71.1091V46.4884H63.0497V19.4824H71.1091V30.3266H71.2686L80.2661 19.4824Z" fill="#040606"/>
<path d="M118.221 41.0124C118.646 41.0648 119.123 41.1187 119.547 41.1187C122.993 41.1187 124.107 39.4705 124.372 31.0187L124.438 19.4824H148.113V46.4884H140.053V24.9712H132.458L132.352 30.9648C132.087 45.2651 127.832 46.9137 121.416 46.9137C120.409 46.9137 119.281 46.8071 118.221 46.5947V41.0124Z" fill="#040606"/>
<path d="M170.556 33.6898C168.115 34.8053 167.997 34.5403 164.852 35.1258C163.116 35.3905 159.877 35.9092 159.877 38.9392C159.877 41.4913 162.682 42.0749 164.255 42.0749C166.262 42.0749 170.556 40.8141 170.556 35.3905V33.6898ZM152.569 28.201C153.003 18.8449 162.716 18.472 165.754 18.472C178.176 18.472 178.614 25.4361 178.614 28.5727L178.615 40.9064C178.615 43.8884 178.505 45.6365 180.079 46.0093V46.4884H171.4L170.695 43.8298H170.532C168.363 46.5408 164.433 47.4973 161.016 47.4973C152.229 47.4973 151.469 41.9689 151.469 39.6831C151.469 33.5168 156.676 32.0815 161.666 31.2307C167.741 30.3805 170.34 30.8061 170.502 28.201V27.4572C170.34 23.8941 166.622 23.8941 165.699 23.8941C164.181 23.8941 160.508 24.2131 160.508 28.201H152.569Z" fill="#040606"/>
<path d="M109.399 33.0395C109.399 41.5988 104.869 42.0702 103.034 42.0749C101.201 42.0702 96.6702 41.5988 96.6702 33.0395C96.6702 33.0213 96.6702 32.9495 96.6702 32.9329C96.6702 24.3718 101.201 23.9007 103.034 23.8956C104.869 23.9007 109.399 24.3718 109.399 32.9329C109.399 32.9495 109.399 33.0213 109.399 33.0395ZM118.023 32.9329C118.023 22.3153 110.542 18.4848 103.034 18.4735C95.5282 18.4848 88.0473 22.3153 88.0473 32.9329C88.0473 32.951 88.0473 33.0213 88.0473 33.0395C88.0473 43.6556 95.5282 47.4857 103.034 47.4973C110.542 47.4857 118.023 43.6556 118.023 33.0395C118.023 33.0213 118.023 32.951 118.023 32.9329Z" fill="#040606"/>
</svg>
