<svg width="36" height="43" viewBox="0 0 36 43" fill="none" xmlns="http://www.w3.org/2000/svg">
<path d="M0.0149176 18L0 20.7523L35.9851 21L36 18.2477L0.0149176 18Z" fill="#1D1D1B"/>
<path d="M11.0649 39L11 41.6137L23.9351 42L24 39.3863L11.0649 39Z" fill="#1D1D1B"/>
<path d="M33.6544 22L26 40.1052L28.3456 41L36 22.8948L33.6544 22Z" fill="#1D1D1B"/>
<path d="M2.28864 22L0 22.9154L7.71136 41L10 40.0846L2.28864 22Z" fill="#1D1D1B"/>
<path d="M21.1244 0L19 0.999442L25.8756 17L28 16.0006L21.1244 0Z" fill="#1D1D1B"/>
<path d="M14.8545 0L8 15.0216L10.1455 16L17 0.978317L14.8545 0Z" fill="#1D1D1B"/>
</svg>
