<svg width="156" height="43" viewBox="0 0 156 43" fill="none" xmlns="http://www.w3.org/2000/svg">
<path d="M15.7196 35.0442C15.9915 35.0787 16.2971 35.1126 16.5685 35.1126C18.7741 35.1126 19.487 34.0631 19.656 28.6803L19.6984 21.3349H34.8503V38.5318H29.6921V24.83H24.8307L24.7628 28.6468C24.5936 37.7525 21.8703 38.8016 17.7644 38.8016C17.1198 38.8016 16.3987 38.7347 15.7196 38.5991V35.0442Z" fill="white"/>
<path d="M50.1138 28.2237C50.0136 24.5339 47.8145 24.1873 46.5769 24.1873C43.5667 24.1873 42.5379 26.4631 42.4383 28.2237H50.1138ZM55.0733 33.4702C53.7351 38.3446 49.3531 39.1738 46.2427 39.1738C44.0014 39.1738 37.1108 38.701 37.1108 29.8992C37.1108 23.9755 41.091 20.6917 46.644 20.6917C54.9727 20.6917 55.2736 28.139 55.4078 30.2369L55.4413 31.2948H42.3957C42.3957 32.9532 43.1987 35.6797 46.4763 35.6797C48.0614 35.6797 49.4869 34.9933 49.9216 33.4702H55.0733Z" fill="white"/>
<path d="M62.8564 38.5318H57.698V21.3349H62.8564V27.8005H68.9807V21.3349H74.1387V38.5318H68.9807V31.2958H62.8564V38.5318Z" fill="white"/>
<path d="M89.3294 21.3349H94.7928V38.5318H89.6818V27.3602L82.8938 38.5318H77.3962V21.3349H82.5072V32.5053L89.3294 21.3349Z" fill="white"/>
<path d="M103.195 35.0787H106.419C108.998 35.0787 109.303 34.0631 109.303 33.3179C109.303 32.1339 108.794 31.2867 106.351 31.2867H103.195V35.0787ZM103.195 28.0713H105.876C106.724 28.0713 108.692 28.0038 108.692 26.4798C108.692 25.0588 107.436 24.7873 105.977 24.7873H103.195V28.0713ZM108.319 21.3349C109.914 21.3349 113.986 21.3349 113.986 25.4984C113.986 27.8005 112.357 29.256 110.491 29.5266V29.6281C113.341 30.2714 114.597 31.4217 114.597 34.1313C114.597 37.6518 112.018 38.5318 108.285 38.5318H98.037V21.3349H108.319Z" fill="white"/>
<path d="M129.16 28.2237C129.06 24.5339 126.861 24.1873 125.623 24.1873C122.613 24.1873 121.584 26.4631 121.484 28.2237H129.16ZM134.119 33.4702C132.782 38.3446 128.399 39.1738 125.289 39.1738C123.048 39.1738 116.157 38.701 116.157 29.8992C116.157 23.9755 120.138 20.6917 125.69 20.6917C134.019 20.6917 134.32 28.139 134.454 30.2369L134.487 31.2948H121.442C121.442 32.9532 122.245 35.6797 125.523 35.6797C127.108 35.6797 128.534 34.9933 128.968 33.4702H134.119Z" fill="white"/>
<path d="M148.025 35.0787V21.3349H153.183V35.0787H156L155.694 43H151.317V38.5318H136.744V21.3349H141.902V35.0787H148.025Z" fill="white"/>
<path d="M117.699 7.10947V10.6047H132.851V7.10947H117.699Z" fill="white"/>
<path d="M5.15778 17.8402H0V0.643237H5.15778V7.10925H11.2829V0.643237H16.4412V17.8402H11.2829V10.6047H5.15778V17.8402Z" fill="white"/>
<path d="M31.631 0.643237H37.0948V17.8402H31.9842V6.66896L25.1957 17.8402H19.6984V0.643237H24.8094V11.8148L31.631 0.643237Z" fill="white"/>
<path d="M51.3706 0.643237H57.3178L49.8864 8.95425L57.3178 17.8402H51.3199L45.6122 10.3248H45.5101V17.8402H40.3519V0.643237H45.5101V7.54898H45.6122L51.3706 0.643237Z" fill="white"/>
<path d="M75.6618 14.3531C75.9337 14.3865 76.2391 14.4208 76.5104 14.4208C78.7158 14.4208 79.4288 13.3712 79.5983 7.98908L79.6411 0.643234H94.7928V17.8402H89.6345V4.13849H84.7738L84.7057 7.95514C84.5362 17.0612 81.8124 18.1106 77.7068 18.1106C77.0624 18.1106 76.3404 18.0431 75.6618 17.9077V14.3531Z" fill="white"/>
<path d="M108.507 9.69049C106.945 10.4008 106.87 10.232 104.857 10.6048C103.746 10.7734 101.672 11.1037 101.672 13.0331C101.672 14.6583 103.468 15.03 104.475 15.03C105.759 15.03 108.507 14.2268 108.507 10.7734V9.69049ZM96.9956 6.19505C97.2735 0.237403 103.49 0 105.434 0C113.384 0 113.665 4.43443 113.665 6.43169L113.665 14.2857C113.665 16.1846 113.595 17.298 114.602 17.5352V17.8403H109.048L108.596 16.1472H108.492C107.104 17.8735 104.588 18.4829 102.401 18.4829C96.7777 18.4829 96.2913 14.9623 96.2913 13.507C96.2913 9.58051 99.6243 8.66617 102.818 8.12481C106.706 7.58325 108.369 7.85422 108.473 6.19505V5.72138C108.369 3.45259 105.99 3.45259 105.399 3.45259C104.428 3.45259 102.076 3.65605 102.076 6.19505H96.9956Z" fill="white"/>
<path d="M70.0159 9.27622C70.0159 14.7266 67.1166 15.0266 65.9424 15.0298C64.7688 15.0266 61.8691 14.7266 61.8691 9.27622C61.8691 9.26465 61.8691 9.21896 61.8691 9.20815C61.8691 3.75659 64.7688 3.4568 65.9424 3.45358C67.1166 3.4568 70.0159 3.75659 70.0159 9.20815C70.0159 9.21896 70.0159 9.26465 70.0159 9.27622ZM75.5353 9.20815C75.5353 2.44708 70.7472 0.00820069 65.9424 0.000615922C61.1384 0.00820069 56.3507 2.44708 56.3507 9.20815C56.3507 9.21971 56.3507 9.26465 56.3507 9.27622C56.3507 16.0361 61.1384 18.4752 65.9424 18.4828C70.7472 18.4752 75.5353 16.0361 75.5353 9.27622C75.5353 9.26465 75.5353 9.21971 75.5353 9.20815Z" fill="white"/>
</svg>
